<svg width="211" height="172" viewBox="0 0 211 172" fill="none" xmlns="http://www.w3.org/2000/svg">
<mask id="mask0_3486_12692" style="mask-type:luminance" maskUnits="userSpaceOnUse" x="0" y="0" width="211" height="172">
<path d="M1.12891 0.851318H210.5V171H1.12891V0.851318Z" fill="white" stroke="white"/>
</mask>
<g mask="url(#mask0_3486_12692)">
<mask id="mask1_3486_12692" style="mask-type:luminance" maskUnits="userSpaceOnUse" x="0" y="0" width="211" height="172">
<path d="M0.628906 0.351318H211V171.5H0.628906V0.351318Z" fill="white"/>
</mask>
<g mask="url(#mask1_3486_12692)">
<path d="M94.9169 41.6862C92.9878 41.7605 91.0797 41.8544 89.1948 41.9658C82.3116 42.3786 75.7333 43.0425 69.5632 43.9205C67.4532 44.2219 65.3916 44.5495 63.3826 44.8989C56.0239 46.1809 49.372 47.7884 43.6416 49.6535C40.3451 50.7259 37.3473 51.8834 34.703 53.1152C26.2125 57.0726 21.292 61.7726 21.292 66.8243C21.292 68.9297 22.1377 70.939 23.7154 72.8893C25.4615 70.7643 28.0911 68.7353 31.4907 66.8636C45.0889 59.3571 70.9538 54.1308 101.026 53.6241L105.515 41.4744C101.924 41.4787 98.3901 41.5508 94.9169 41.6862Z" fill="#CF9645"/>
</g>
<mask id="mask2_3486_12692" style="mask-type:luminance" maskUnits="userSpaceOnUse" x="0" y="0" width="211" height="172">
<path d="M0.628906 0.351318H211V171.5H0.628906V0.351318Z" fill="white"/>
</mask>
<g mask="url(#mask2_3486_12692)">
<path d="M148.239 44.9029C146.23 44.5534 144.169 44.228 142.059 43.9266C135.889 43.0465 129.31 42.3847 122.427 41.9741C120.542 41.8627 118.634 41.7688 116.705 41.6946C115.437 41.6465 114.162 41.6028 112.876 41.5701L113.722 53.7001C142.461 54.4995 167.027 59.6079 180.138 66.8632C183.537 68.7349 186.167 70.7639 187.913 72.8889C189.491 70.9386 190.336 68.9293 190.336 66.8239C190.336 61.7744 185.416 57.0744 176.925 53.1148C174.277 51.883 171.279 50.7255 167.976 49.6531C162.248 47.7902 155.596 46.1849 148.239 44.9029Z" fill="#CF9645"/>
</g>
<mask id="mask3_3486_12692" style="mask-type:luminance" maskUnits="userSpaceOnUse" x="0" y="0" width="211" height="172">
<path d="M0.628906 0.351318H211V171.5H0.628906V0.351318Z" fill="white"/>
</mask>
<g mask="url(#mask3_3486_12692)">
<path d="M210.943 70.9587C209.91 72.8894 208.164 74.9358 205.741 77.0041C202.04 80.4942 196.499 83.7112 189.456 86.5592C189.38 86.5788 189.307 86.6182 189.25 86.6378C186.452 87.8478 183.408 88.9966 180.103 90.0886C173.887 92.1547 166.787 94.0089 158.822 95.529L158.445 94.983L140.019 68.1894L117.817 112.807L113.723 53.7006L112.877 41.5706L111.796 25.8762L111.712 24.6641L111.277 25.8478L105.515 41.4745L101.025 53.6242L84.8353 97.4596L71.3296 79.5594L55.9832 95.4722C46.9479 93.9718 38.7036 92.0607 31.49 89.8374C18.1169 85.7227 8.31157 80.4767 3.65401 74.6082C2.30134 72.8916 1.38203 71.1378 0.948667 69.3426C0.742505 68.5039 0.628906 67.6652 0.628906 66.8266V82.3681C0.628906 87.9067 5.13711 93.1506 13.0638 97.7152C19.5053 100.856 27.0575 103.682 35.5838 106.06C38.5773 106.899 41.7034 107.687 44.9389 108.423C49.0705 109.365 53.3894 110.221 57.8976 110.974L61.6927 111.619L62.9591 110.304L67.564 105.523L69.9559 103.04L86.6908 125.251L89.7012 118.47L94.1462 108.445L101.364 92.1743L105.435 131.002L106.049 136.853L107.303 148.804L108.089 156.31L109.686 171.5L116.523 155.568L120.859 145.445L125.291 135.097L128.083 128.58L141.955 96.1907L144.992 101.151L149.236 108.078L151.44 111.675C156.573 110.911 161.466 110.013 166.094 109.011C169.492 108.275 172.753 107.486 175.839 106.643C197.42 100.677 211 92.0192 211 82.3659V70.8605L210.943 70.9587Z" fill="#BA8437"/>
</g>
<mask id="mask4_3486_12692" style="mask-type:luminance" maskUnits="userSpaceOnUse" x="0" y="0" width="211" height="172">
<path d="M0.628906 0.351318H211V171.5H0.628906V0.351318Z" fill="white"/>
</mask>
<g mask="url(#mask4_3486_12692)">
<path d="M105.811 150.428C104.702 149.72 101.961 146.167 99.2034 136.653C101.383 136.785 103.585 136.854 105.811 136.854L106.049 136.852L105.435 131.001C102.811 130.992 100.222 130.885 97.6677 130.687C97.5983 130.379 97.5268 130.073 97.4574 129.756C96.0584 123.423 94.9476 116.211 94.1461 108.447L89.7011 118.469C90.2985 122.595 90.9843 126.469 91.7479 130.051C85.9291 129.256 80.3502 127.979 75.0994 126.277C71.8807 120.051 69.3479 113.049 67.5682 105.518L62.9632 110.299C64.217 114.929 65.7316 119.319 67.4819 123.416C58.5749 119.585 50.8901 114.464 44.943 108.418C41.7075 107.682 38.5814 106.894 35.5879 106.055C46.3293 135.465 73.7341 156.349 105.815 156.349C106.585 156.349 107.336 156.329 108.087 156.31L107.301 148.803C106.676 149.694 106.16 150.205 105.811 150.428ZM48.4393 119.026C54.965 123.969 62.6645 128.072 71.2138 131.091C74.5903 137.199 78.5473 142.411 82.9377 146.486C68.8114 141.36 56.7531 131.626 48.4393 119.026ZM79.4224 133.578C83.8465 134.714 88.4494 135.572 93.1911 136.125C94.59 141.399 96.1825 145.807 97.9181 149.148C91.1757 146.811 84.831 141.493 79.4224 133.578Z" fill="white"/>
</g>
<mask id="mask5_3486_12692" style="mask-type:luminance" maskUnits="userSpaceOnUse" x="0" y="0" width="211" height="172">
<path d="M0.628906 0.351318H211V171.5H0.628906V0.351318Z" fill="white"/>
</mask>
<g mask="url(#mask5_3486_12692)">
<path d="M67.4804 33.2907C65.9216 36.9402 64.5499 40.8234 63.3824 44.901C65.3914 44.5515 67.453 44.2239 69.563 43.9225C71.084 39.1242 72.9416 34.6077 75.0978 30.4318C80.3507 28.7305 85.9297 27.4528 91.7464 26.6578C90.7556 31.3011 89.8973 36.4357 89.1925 41.9678C91.0774 41.8543 92.9855 41.7625 94.9146 41.6883C95.6109 36.4117 96.4608 31.4605 97.4558 26.9549C97.5253 26.6382 97.5968 26.3324 97.6662 26.0245C100.342 25.817 103.058 25.7056 105.81 25.7056C107.648 25.7056 109.47 25.7558 111.275 25.8498L111.71 24.666L111.795 25.8781C112.516 25.9196 113.236 25.9699 113.951 26.0245C114.022 26.3324 114.092 26.6382 114.161 26.9549C115.156 31.4627 116.006 36.4182 116.705 41.697C118.632 41.7713 120.542 41.863 122.427 41.9766C121.722 36.4444 120.864 31.3054 119.873 26.66C125.692 27.455 131.271 28.7327 136.521 30.434C138.68 34.6099 140.537 39.1286 142.058 43.9291C144.168 44.2305 146.23 44.5559 148.239 44.9053C147.071 40.8278 145.7 36.9446 144.141 33.2929C153.711 37.4076 161.871 43.014 167.978 49.6556C171.278 50.7279 174.276 51.8855 176.927 53.1172C176.632 52.224 176.321 51.3416 175.997 50.4637C176.001 50.4702 175.993 50.4571 175.997 50.4637C175.93 50.2802 175.852 50.0793 175.782 49.8958C175.522 49.2057 175.252 48.5199 174.973 47.8385C174.838 47.5087 174.697 47.1811 174.558 46.8535C174.346 46.3577 174.129 45.8619 173.908 45.3705C173.75 45.0211 173.595 44.6716 173.431 44.3244C173.144 43.7129 172.85 43.1079 172.551 42.5051C172.391 42.1862 172.229 41.8674 172.065 41.5507C171.775 40.9872 171.476 40.4281 171.173 39.8712C170.98 39.5174 170.782 39.1679 170.584 38.8185C170.311 38.338 170.035 37.8597 169.751 37.3858C169.574 37.0887 169.398 36.7917 169.217 36.499C168.834 35.8744 168.443 35.2541 168.041 34.6404C167.858 34.3609 167.673 34.0857 167.488 33.8105C167.187 33.3628 166.882 32.9172 166.57 32.4761C166.389 32.2184 166.213 31.9606 166.03 31.7051C165.601 31.1089 165.163 30.5236 164.717 29.9404C164.509 29.6652 164.296 29.3944 164.084 29.1236C163.716 28.6562 163.343 28.191 162.967 27.7324C162.708 27.4179 162.447 27.1056 162.184 26.7954C161.816 26.3608 161.444 25.9306 161.065 25.5069C160.838 25.2492 160.609 24.9936 160.377 24.7403C159.887 24.203 159.393 23.6723 158.89 23.1503C158.665 22.9166 158.435 22.6873 158.206 22.458C157.836 22.0845 157.464 21.7154 157.087 21.3485C156.851 21.1192 156.618 20.8898 156.378 20.6649C155.854 20.1691 155.324 19.6843 154.788 19.206C154.529 18.9745 154.266 18.7451 154.003 18.5158C153.591 18.1576 153.176 17.806 152.758 17.4588C152.423 17.1792 152.084 16.904 151.744 16.6288C151.302 16.2728 150.856 15.9234 150.406 15.5761C150.122 15.3577 149.838 15.1415 149.549 14.9275C148.988 14.5103 148.422 14.0975 147.85 13.6935C147.566 13.4948 147.28 13.3026 146.993 13.1082C146.581 12.8286 146.169 12.5513 145.75 12.2783C145.454 12.0839 145.157 11.8895 144.856 11.6995C144.263 11.3238 143.663 10.9569 143.057 10.5987C142.742 10.4109 142.424 10.2296 142.107 10.0462C141.677 9.79939 141.246 9.55915 140.813 9.32109C140.396 9.09177 139.976 8.86681 139.555 8.64623C139.06 8.38633 138.562 8.13298 138.061 7.88619C137.72 7.71802 137.378 7.55203 137.033 7.38823C136.521 7.14581 136.008 6.90993 135.491 6.67843C135.047 6.47968 134.601 6.28749 134.153 6.09748C133.719 5.91402 133.282 5.73274 132.844 5.55802C132.486 5.41388 132.129 5.27192 131.767 5.13214C131.121 4.88534 130.471 4.64729 129.817 4.41796C129.451 4.28911 129.081 4.16899 128.712 4.04668C128.277 3.90254 127.839 3.76276 127.4 3.62516C126.928 3.47884 126.457 3.33469 125.982 3.19928C125.429 3.03985 124.873 2.88478 124.316 2.73845C123.927 2.6358 123.535 2.53752 123.144 2.44143C122.654 2.3213 122.159 2.20774 121.665 2.09635C121.122 1.97623 120.577 1.86048 120.028 1.75128C119.563 1.65955 119.099 1.57 118.632 1.48701C118.234 1.41494 117.834 1.34505 117.432 1.28171C116.738 1.17033 116.04 1.06549 115.339 0.973764C114.948 0.923532 114.555 0.879851 114.163 0.833987C113.696 0.779386 113.225 0.731338 112.756 0.685473C112.365 0.648345 111.973 0.609033 111.58 0.578456C110.867 0.521672 110.152 0.480176 109.434 0.443047C109.03 0.423391 108.626 0.408103 108.22 0.394999C107.692 0.377527 107.164 0.366607 106.634 0.362238C106.361 0.360054 106.089 0.351318 105.816 0.351318C105.551 0.351318 105.286 0.35787 105.021 0.362238C104.48 0.368791 103.939 0.377527 103.401 0.394999C103.007 0.408103 102.614 0.423391 102.221 0.440863C101.484 0.477992 100.748 0.521672 100.018 0.578456C99.6605 0.606849 99.305 0.643977 98.9494 0.676737C98.4319 0.724786 97.9144 0.779386 97.399 0.838355C97.0456 0.879851 96.6901 0.919164 96.3367 0.965028C95.6025 1.06112 94.8725 1.17033 94.1446 1.28826C93.7933 1.34505 93.4441 1.4062 93.0949 1.46954C92.5332 1.56782 91.9757 1.67483 91.4183 1.7884C91.0375 1.86484 90.6546 1.94347 90.276 2.02646C89.6427 2.16406 89.0116 2.31257 88.3847 2.46545C88.0629 2.54407 87.741 2.62488 87.4212 2.71006C86.6871 2.90225 85.955 3.101 85.2271 3.31722C84.9725 3.39147 84.7222 3.47447 84.4677 3.55091C83.8892 3.73 83.3106 3.91346 82.7384 4.10565C82.4671 4.19738 82.1936 4.28692 81.9222 4.38084C81.1922 4.63418 80.4665 4.90063 79.7449 5.178C79.4924 5.27628 79.24 5.37675 78.9876 5.47721C78.3733 5.72182 77.7653 5.97299 77.1595 6.2307C76.9764 6.30933 76.7934 6.38358 76.6125 6.46221C75.8783 6.78544 75.1504 7.12178 74.4289 7.46686C74.2017 7.57606 73.9766 7.68526 73.7515 7.79446C73.0194 8.15264 72.2936 8.51955 71.5742 8.90176C71.4564 8.96509 71.3385 9.03062 71.2207 9.09614C70.5665 9.44995 69.9186 9.81249 69.2748 10.186C69.096 10.2908 68.9151 10.3934 68.7363 10.4983C68.0231 10.9198 67.3142 11.3522 66.6158 11.7978C66.4706 11.8917 66.3255 11.9856 66.1803 12.0795C65.5345 12.4967 64.8928 12.9247 64.2596 13.3615C64.1587 13.4314 64.0577 13.4969 63.9588 13.5668C63.2562 14.0582 62.562 14.5627 61.8762 15.076C61.7394 15.1786 61.6027 15.2813 61.468 15.3861C60.0607 16.4563 58.6891 17.5767 57.3595 18.7451C57.2544 18.8369 57.1492 18.9286 57.0461 19.0203C56.3834 19.61 55.7271 20.2084 55.0833 20.82C55.0265 20.8746 54.9697 20.9313 54.913 20.9859C54.2818 21.5887 53.6613 22.2024 53.0512 22.8293C53.0049 22.8773 52.9565 22.9232 52.9102 22.9712C52.2791 23.6221 51.6585 24.286 51.0485 24.9587C50.977 25.0373 50.9075 25.1159 50.836 25.1967C49.6075 26.5661 48.4273 27.9792 47.2955 29.4359C47.2366 29.5102 47.1777 29.5866 47.1209 29.6609C45.9702 31.1547 44.8699 32.6923 43.8265 34.2735C43.8013 34.3106 43.7781 34.3456 43.7529 34.3827C43.2354 35.169 42.7305 35.9683 42.2382 36.7764C42.2046 36.831 42.1709 36.8878 42.1373 36.9446C41.1569 38.5651 40.2334 40.2272 39.3688 41.9241C39.333 41.994 39.2973 42.0639 39.2615 42.1338C38.3969 43.8439 37.5912 45.5911 36.8465 47.3733C36.8275 47.4191 36.8065 47.465 36.7876 47.5131C36.4173 48.4041 36.0639 49.304 35.7252 50.2125C35.7084 50.2562 35.6937 50.2999 35.6768 50.3435C35.3381 51.2586 35.0142 52.1803 34.707 53.1129C37.3514 51.8811 40.3491 50.7236 43.6456 49.6512C49.7505 43.014 57.9086 37.4054 67.4804 33.2907ZM163.183 37.6828C156.658 32.7403 148.958 28.6366 140.409 25.6182C137.033 19.5095 133.075 14.2985 128.685 10.2231C142.809 15.3512 154.87 25.0832 163.183 37.6828ZM132.2 23.1307C127.776 21.995 123.173 21.1366 118.432 20.5841C117.033 15.3097 115.44 10.9023 113.705 7.56077C120.447 9.89986 126.79 15.2179 132.2 23.1307ZM105.812 6.28093C106.92 6.98856 109.661 10.542 112.419 20.0555C110.24 19.9245 108.037 19.8546 105.812 19.8546C103.586 19.8546 101.383 19.9245 99.204 20.0555C101.962 10.542 104.703 6.98856 105.812 6.28093ZM97.9186 7.56077C96.1831 10.9023 94.5906 15.3097 93.1917 20.5841C88.4499 21.1366 83.8471 21.995 79.423 23.1307C84.8316 15.2179 91.1763 9.89986 97.9186 7.56077ZM82.9383 10.2231C78.5479 14.2985 74.593 19.5095 71.2144 25.6182C62.665 28.6366 54.9655 32.7403 48.4399 37.6828C56.7537 25.0832 68.812 15.3512 82.9383 10.2231Z" fill="white"/>
</g>
<mask id="mask6_3486_12692" style="mask-type:luminance" maskUnits="userSpaceOnUse" x="0" y="0" width="211" height="172">
<path d="M0.628906 0.351318H211V171.5H0.628906V0.351318Z" fill="white"/>
</mask>
<g mask="url(#mask6_3486_12692)">
<path d="M144.141 123.418C146.167 118.67 147.879 113.529 149.234 108.078L144.991 101.15C143.216 110.343 140.357 118.863 136.524 126.277C133.793 127.162 130.976 127.933 128.082 128.579L125.29 135.096C127.638 134.666 129.941 134.157 132.201 133.576C128.753 138.619 124.926 142.609 120.858 145.444L116.524 155.561C116.621 155.545 116.715 155.534 116.812 155.519C117.551 155.406 118.287 155.285 119.017 155.152C119.002 155.154 119.032 155.15 119.017 155.152C119.791 155.008 120.603 154.844 121.367 154.676C121.535 154.639 121.701 154.6 121.867 154.563C122.501 154.418 123.13 154.268 123.756 154.108C123.897 154.071 124.04 154.038 124.181 154.001C125.709 153.602 127.219 153.154 128.706 152.66C128.839 152.617 128.971 152.571 129.104 152.527C129.773 152.3 130.438 152.066 131.098 151.822C131.174 151.793 131.25 151.767 131.323 151.739C132.081 151.455 132.834 151.16 133.581 150.85C133.602 150.841 133.623 150.832 133.644 150.824C134.338 150.535 135.028 150.234 135.714 149.926C135.834 149.871 135.954 149.817 136.073 149.762C136.757 149.45 137.435 149.129 138.108 148.797C138.129 148.786 138.15 148.777 138.169 148.766C138.888 148.41 139.601 148.039 140.308 147.661C140.382 147.622 140.455 147.58 140.531 147.539C141.141 147.207 141.747 146.868 142.349 146.519C142.469 146.449 142.589 146.379 142.709 146.309C144.051 145.523 145.365 144.695 146.655 143.826C146.764 143.752 146.872 143.677 146.981 143.603C147.524 143.232 148.062 142.856 148.597 142.472C148.712 142.389 148.828 142.306 148.944 142.223C150.189 141.316 151.405 140.369 152.592 139.388C152.716 139.285 152.838 139.183 152.962 139.078C153.46 138.661 153.953 138.237 154.441 137.807C154.538 137.722 154.634 137.639 154.731 137.551C155.314 137.031 155.888 136.505 156.456 135.968C156.494 135.933 156.53 135.896 156.566 135.861C157.081 135.369 157.59 134.869 158.093 134.363C158.208 134.247 158.324 134.129 158.44 134.011C158.924 133.517 159.403 133.017 159.875 132.511C159.927 132.456 159.98 132.399 160.03 132.345C160.567 131.764 161.095 131.174 161.614 130.575C161.671 130.51 161.726 130.444 161.783 130.379C162.239 129.85 162.689 129.313 163.131 128.771C163.217 128.667 163.304 128.56 163.39 128.455C164.389 127.219 165.353 125.95 166.278 124.65C166.316 124.598 166.354 124.543 166.392 124.489C166.829 123.868 167.261 123.242 167.681 122.608C167.715 122.556 167.751 122.505 167.784 122.453C168.7 121.068 169.573 119.653 170.401 118.207C170.399 118.21 170.404 118.205 170.401 118.207C172.505 114.538 174.329 110.668 175.837 106.641C172.751 107.484 169.493 108.272 166.093 109.008C160.23 114.8 152.758 119.714 144.141 123.418ZM128.683 146.486C133.074 142.411 137.029 137.2 140.407 131.091C148.956 128.073 156.656 123.969 163.182 119.026C154.868 131.626 142.807 141.36 128.683 146.486Z" fill="white"/>
</g>
</g>
</svg>
